<svg width="30" height="30" viewBox="0 0 30 30" fill="none" xmlns="http://www.w3.org/2000/svg">
<rect width="30" height="30" rx="2" fill="#7481FF"/>
<path d="M14.8575 10.6958C12.5995 10.6958 10.7285 12.5345 10.7285 14.8248C10.7285 17.1152 12.5672 18.9539 14.8575 18.9539C17.1479 18.9539 18.9866 17.0829 18.9866 14.8248C18.9866 12.5668 17.1156 10.6958 14.8575 10.6958ZM14.8575 17.47C13.4059 17.47 12.2124 16.2764 12.2124 14.8248C12.2124 13.3732 13.4059 12.1797 14.8575 12.1797C16.3092 12.1797 17.5027 13.3732 17.5027 14.8248C17.5027 16.2764 16.3092 17.47 14.8575 17.47Z" fill="white"/>
<path d="M19.1503 11.5345C19.667 11.5345 20.0858 11.1157 20.0858 10.5991C20.0858 10.0824 19.667 9.66357 19.1503 9.66357C18.6337 9.66357 18.2148 10.0824 18.2148 10.5991C18.2148 11.1157 18.6337 11.5345 19.1503 11.5345Z" fill="white"/>
<path d="M21.5671 8.18C20.7284 7.30903 19.5348 6.85742 18.18 6.85742H11.5348C8.72839 6.85742 6.85742 8.72839 6.85742 11.5348V18.1477C6.85742 19.5348 7.30903 20.7284 8.21226 21.5994C9.08323 22.4381 10.2445 22.8574 11.5671 22.8574H18.1477C19.5348 22.8574 20.6961 22.4058 21.5348 21.5994C22.4058 20.7606 22.8574 19.5671 22.8574 18.18V11.5348C22.8574 10.18 22.4058 9.01871 21.5671 8.18ZM21.4381 18.18C21.4381 19.18 21.0832 19.9865 20.5026 20.5348C19.9219 21.0832 19.1155 21.3735 18.1477 21.3735H11.5671C10.5994 21.3735 9.79291 21.0832 9.21226 20.5348C8.63162 19.9542 8.34129 19.1477 8.34129 18.1477V11.5348C8.34129 10.5671 8.63162 9.76065 9.21226 9.18C9.76065 8.63162 10.5994 8.34129 11.5671 8.34129H18.2123C19.18 8.34129 19.9865 8.63162 20.5671 9.21226C21.1155 9.79291 21.4381 10.5994 21.4381 11.5348V18.18Z" fill="white"/>
</svg>
